<svg width="744" height="540" viewBox="0 0 744 540" fill="none" xmlns="http://www.w3.org/2000/svg">
<path d="M61.7445 420.433C59.8038 417.982 57.1481 416.194 53.7774 415.071C50.5089 413.845 47.3936 413.232 44.4315 413.232C42.6951 413.232 40.9076 413.436 39.0691 413.845C37.2305 414.254 35.4941 414.917 33.8599 415.837C32.2256 416.654 30.8978 417.777 29.8764 419.207C28.8549 420.637 28.3442 422.374 28.3442 424.417C28.3442 427.685 29.5699 430.188 32.0213 431.924C34.4727 433.66 37.537 435.141 41.2141 436.367C44.9933 437.593 49.0279 438.819 53.3178 440.044C57.6077 441.27 61.5913 443.006 65.2684 445.253C69.0476 447.501 72.1629 450.514 74.6143 454.293C77.0657 458.072 78.2914 463.128 78.2914 469.461C78.2914 475.487 77.1678 480.748 74.9207 485.242C72.6736 489.736 69.6094 493.464 65.728 496.426C61.9488 499.388 57.5056 501.584 52.3985 503.014C47.3936 504.444 42.0823 505.159 36.4645 505.159C29.4167 505.159 22.8797 504.087 16.8533 501.942C10.827 499.797 5.20921 496.324 0 491.524L17.0065 472.832C19.4579 476.1 22.5222 478.654 26.1993 480.492C29.9785 482.229 33.8599 483.097 37.8434 483.097C39.7841 483.097 41.7248 482.893 43.6654 482.484C45.7083 481.973 47.4957 481.258 49.0279 480.339C50.6621 479.42 51.9389 478.245 52.8582 476.815C53.8796 475.385 54.3903 473.7 54.3903 471.759C54.3903 468.491 53.1135 465.937 50.56 464.099C48.1086 462.158 44.9933 460.524 41.2141 459.196C37.4348 457.868 33.3492 456.54 28.9571 455.212C24.565 453.884 20.4793 452.097 16.7001 449.85C12.9209 447.603 9.7545 444.641 7.20097 440.964C4.74958 437.286 3.52388 432.435 3.52388 426.408C3.52388 420.586 4.64743 415.479 6.89454 411.087C9.2438 406.695 12.308 403.018 16.0873 400.056C19.9686 397.094 24.4118 394.898 29.4167 393.468C34.4217 391.936 39.5798 391.17 44.8911 391.17C51.0196 391.17 56.9438 392.038 62.6637 393.774C68.3837 395.511 73.5418 398.422 78.1382 402.507L61.7445 420.433Z" fill="#123648"/>
<path d="M134.247 469.767C132.511 469.767 130.315 469.87 127.659 470.074C125.106 470.176 122.603 470.585 120.152 471.3C117.803 472.015 115.76 473.087 114.023 474.517C112.389 475.947 111.572 477.939 111.572 480.492C111.572 483.25 112.747 485.293 115.096 486.621C117.445 487.949 119.896 488.612 122.45 488.612C124.697 488.612 126.842 488.306 128.885 487.693C131.03 487.08 132.919 486.212 134.554 485.089C136.188 483.965 137.465 482.535 138.384 480.799C139.405 479.062 139.916 477.019 139.916 474.67V469.767H134.247ZM139.916 493.056H139.61C137.056 497.039 133.634 499.899 129.345 501.636C125.157 503.372 120.714 504.24 116.015 504.24C112.542 504.24 109.172 503.729 105.903 502.708C102.737 501.789 99.9278 500.359 97.4764 498.418C95.025 496.477 93.0843 494.077 91.6543 491.217C90.2244 488.357 89.5094 485.038 89.5094 481.258C89.5094 476.968 90.2754 473.342 91.8076 470.38C93.4418 467.418 95.5868 464.967 98.2425 463.026C101 461.085 104.116 459.604 107.588 458.583C111.061 457.459 114.636 456.642 118.313 456.132C122.092 455.621 125.821 455.314 129.498 455.212C133.277 455.11 136.75 455.059 139.916 455.059C139.916 450.973 138.435 447.756 135.473 445.407C132.613 442.955 129.191 441.73 125.208 441.73C121.429 441.73 117.956 442.547 114.789 444.181C111.725 445.713 108.967 447.858 106.516 450.616L94.2589 438.053C98.5489 434.069 103.554 431.107 109.274 429.166C114.994 427.123 120.918 426.102 127.046 426.102C133.788 426.102 139.303 426.97 143.593 428.707C147.985 430.341 151.458 432.792 154.012 436.061C156.667 439.329 158.506 443.364 159.527 448.165C160.549 452.863 161.059 458.328 161.059 464.558V502.402H139.916V493.056Z" fill="#123648"/>
<path d="M167.664 427.941H192.485L211.33 478.501H211.636L229.102 427.941H252.237L222.821 502.402H198.46L167.664 427.941Z" fill="#123648"/>
<path d="M311.632 456.744C311.734 452.863 310.458 449.543 307.802 446.786C305.146 444.028 301.724 442.649 297.537 442.649C294.983 442.649 292.736 443.057 290.795 443.875C288.855 444.692 287.169 445.764 285.739 447.092C284.411 448.318 283.339 449.799 282.522 451.535C281.807 453.169 281.398 454.906 281.296 456.744H311.632ZM331.09 489.532C327.413 494.23 322.766 497.856 317.148 500.41C311.53 502.963 305.708 504.24 299.682 504.24C293.962 504.24 288.548 503.321 283.441 501.482C278.436 499.644 274.044 497.039 270.265 493.668C266.588 490.196 263.677 486.059 261.532 481.258C259.387 476.458 258.314 471.095 258.314 465.171C258.314 459.247 259.387 453.884 261.532 449.084C263.677 444.283 266.588 440.197 270.265 436.827C274.044 433.354 278.436 430.698 283.441 428.86C288.548 427.021 293.962 426.102 299.682 426.102C304.993 426.102 309.794 427.021 314.084 428.86C318.476 430.698 322.153 433.354 325.115 436.827C328.179 440.197 330.528 444.283 332.163 449.084C333.797 453.884 334.614 459.247 334.614 465.171V472.372H281.296C282.215 476.764 284.207 480.288 287.271 482.944C290.336 485.497 294.115 486.774 298.609 486.774C302.388 486.774 305.555 485.957 308.108 484.323C310.764 482.586 313.062 480.39 315.003 477.734L331.09 489.532Z" fill="#123648"/>
<path d="M391.489 514.505C389.957 518.489 388.476 522.013 387.046 525.077C385.616 528.141 383.778 530.695 381.53 532.738C379.385 534.883 376.628 536.466 373.257 537.487C369.886 538.611 365.443 539.172 359.927 539.172C354.003 539.172 348.283 538.253 342.768 536.415L345.832 517.57C349.305 519.102 352.88 519.868 356.557 519.868C359.11 519.868 361.204 519.561 362.839 518.948C364.473 518.438 365.801 517.621 366.822 516.497C367.946 515.476 368.865 514.199 369.58 512.667C370.295 511.135 371.061 509.347 371.878 507.304L373.563 503.014L340.929 427.941H365.75L384.901 477.122H385.207L401.601 427.941H425.196L391.489 514.505Z" fill="#123648"/>
<path d="M453.948 465.171C453.948 470.789 455.531 475.334 458.698 478.807C461.966 482.28 466.512 484.016 472.334 484.016C478.156 484.016 482.65 482.28 485.816 478.807C489.085 475.334 490.719 470.789 490.719 465.171C490.719 459.553 489.085 455.008 485.816 451.535C482.65 448.062 478.156 446.326 472.334 446.326C466.512 446.326 461.966 448.062 458.698 451.535C455.531 455.008 453.948 459.553 453.948 465.171ZM430.966 465.171C430.966 459.247 432.039 453.884 434.184 449.084C436.329 444.283 439.24 440.197 442.917 436.827C446.696 433.354 451.088 430.698 456.093 428.86C461.2 427.021 466.614 426.102 472.334 426.102C478.054 426.102 483.416 427.021 488.421 428.86C493.528 430.698 497.92 433.354 501.597 436.827C505.376 440.197 508.339 444.283 510.484 449.084C512.629 453.884 513.701 459.247 513.701 465.171C513.701 471.095 512.629 476.458 510.484 481.258C508.339 486.059 505.376 490.196 501.597 493.668C497.92 497.039 493.528 499.644 488.421 501.482C483.416 503.321 478.054 504.24 472.334 504.24C466.614 504.24 461.2 503.321 456.093 501.482C451.088 499.644 446.696 497.039 442.917 493.668C439.24 490.196 436.329 486.059 434.184 481.258C432.039 476.458 430.966 471.095 430.966 465.171Z" fill="#123648"/>
<path d="M525.705 404.499C525.705 400.822 526.982 397.707 529.536 395.153C532.191 392.497 535.358 391.17 539.035 391.17C542.712 391.17 545.827 392.497 548.381 395.153C551.036 397.707 552.364 400.822 552.364 404.499C552.364 408.176 551.036 411.343 548.381 413.998C545.827 416.552 542.712 417.829 539.035 417.829C535.358 417.829 532.191 416.552 529.536 413.998C526.982 411.343 525.705 408.176 525.705 404.499ZM550.526 507.917C550.526 512.718 550.066 517.008 549.147 520.787C548.228 524.668 546.695 527.937 544.55 530.593C542.406 533.35 539.546 535.444 535.971 536.874C532.498 538.406 528.157 539.172 522.948 539.172C521.211 539.172 519.424 539.07 517.585 538.866C515.747 538.764 513.959 538.457 512.223 537.947L513.448 517.57C515.287 518.489 517.279 518.948 519.424 518.948C521.364 518.948 522.897 518.438 524.02 517.416C525.144 516.395 525.961 515.118 526.471 513.586C526.982 512.054 527.289 510.42 527.391 508.683C527.493 506.947 527.544 505.364 527.544 503.934V427.941H550.526V507.917Z" fill="#123648"/>
<path d="M587.261 465.171C587.261 470.789 588.844 475.334 592.01 478.807C595.279 482.28 599.824 484.016 605.646 484.016C611.468 484.016 615.962 482.28 619.129 478.807C622.397 475.334 624.032 470.789 624.032 465.171C624.032 459.553 622.397 455.008 619.129 451.535C615.962 448.062 611.468 446.326 605.646 446.326C599.824 446.326 595.279 448.062 592.01 451.535C588.844 455.008 587.261 459.553 587.261 465.171ZM564.279 465.171C564.279 459.247 565.351 453.884 567.496 449.084C569.641 444.283 572.552 440.197 576.229 436.827C580.009 433.354 584.401 430.698 589.406 428.86C594.513 427.021 599.926 426.102 605.646 426.102C611.366 426.102 616.728 427.021 621.733 428.86C626.84 430.698 631.233 433.354 634.91 436.827C638.689 440.197 641.651 444.283 643.796 449.084C645.941 453.884 647.013 459.247 647.013 465.171C647.013 471.095 645.941 476.458 643.796 481.258C641.651 486.059 638.689 490.196 634.91 493.668C631.233 497.039 626.84 499.644 621.733 501.482C616.728 503.321 611.366 504.24 605.646 504.24C599.926 504.24 594.513 503.321 589.406 501.482C584.401 499.644 580.009 497.039 576.229 493.668C572.552 490.196 569.641 486.059 567.496 481.258C565.351 476.458 564.279 471.095 564.279 465.171Z" fill="#123648"/>
<path d="M683.838 465.171C683.838 470.789 685.421 475.334 688.588 478.807C691.856 482.28 696.402 484.016 702.224 484.016C708.046 484.016 712.54 482.28 715.706 478.807C718.975 475.334 720.609 470.789 720.609 465.171C720.609 459.553 718.975 455.008 715.706 451.535C712.54 448.062 708.046 446.326 702.224 446.326C696.402 446.326 691.856 448.062 688.588 451.535C685.421 455.008 683.838 459.553 683.838 465.171ZM662.695 386.573H685.677V435.908H685.983C688.639 432.333 692.009 429.83 696.095 428.4C700.283 426.868 704.777 426.102 709.578 426.102C714.889 426.102 719.639 427.226 723.827 429.473C728.014 431.618 731.538 434.529 734.398 438.206C737.36 441.883 739.607 446.122 741.14 450.922C742.774 455.621 743.591 460.575 743.591 465.784C743.591 471.402 742.723 476.56 740.986 481.258C739.25 485.957 736.747 490.042 733.479 493.515C730.313 496.886 726.482 499.542 721.988 501.482C717.494 503.321 712.489 504.24 706.973 504.24C704.318 504.24 701.815 503.883 699.466 503.168C697.117 502.453 694.921 501.533 692.878 500.41C690.937 499.286 689.201 498.061 687.669 496.733C686.239 495.303 685.064 493.924 684.145 492.596H683.838V502.402H662.695V386.573Z" fill="#123648"/>
<g clip-path="url(#clip0_62_8)">
<rect x="194" width="356" height="356" rx="178" fill="#61D4FB"/>
<path d="M264.817 115.786L274.276 155.039L269.073 181.05L261.979 196.184L252.994 210.845L261.979 220.777L276.64 233.546L292.72 253.409L300.76 264.759L277.586 277.055L260.561 301.648L266.236 327.659L287.518 360.291L342.377 391.504L371.699 393.396L401.021 391.504L439.801 376.844L464.866 355.562L481.892 320.092L473.379 279.893L442.166 265.705L451.151 252.936L470.069 232.127L490.405 210.372L481.892 200.441L470.069 172.065V155.039L477.636 127.609V81.262L470.069 68.9658L424.667 103.017L405.75 115.786L389.198 111.53H348.526L329.608 115.786L292.72 81.262L274.276 68.9658L264.817 81.262V115.786Z" fill="#61D4FB"/>
<path d="M368.729 392.068C367.926 391.077 364.098 385.74 360.173 380.168C353.416 370.627 353.038 369.968 353.038 367.889C353.038 365.999 358.85 336.058 361.971 322.033L362.871 317.926L360.177 313.63C358.711 311.316 357.387 309.38 357.248 309.334C357.105 309.334 353.609 312.311 349.449 315.944C342.692 321.894 341.746 322.507 340.187 322.553C338.439 322.553 338.393 322.507 338.393 320.949C338.393 319.013 341.322 314.952 352.76 301.162C356.824 296.299 360.131 292.235 360.131 292.142C360.131 292.049 358.572 291.672 356.727 291.386C345.15 289.497 334.893 286.145 324.026 280.712C321.189 279.296 318.828 278.209 318.731 278.301C318.542 278.49 331.396 314.004 344.772 350.18C346.474 354.854 349.499 363.026 351.386 368.363C353.323 373.701 355.639 380.029 356.538 382.435C357.483 384.845 358.24 387.537 358.24 388.432C358.24 390.036 358.147 390.086 356.538 390.086C354.693 390.086 353.937 389.566 346.663 383.523C327.618 367.607 311.974 351.125 293.686 327.609C285.37 316.935 285.416 317.174 292.173 312.781C299.687 307.965 299.641 308.674 292.644 305.554C278.513 299.226 279.319 299.697 279.365 297.668C279.365 296.11 280.832 293.7 289.669 280.573L300.019 265.224L297.796 263.431C296.615 262.44 295.384 261.638 295.056 261.638C292.363 261.638 274.264 270.423 266.797 275.382C262.733 278.028 261.456 278.641 259.943 278.641C258.098 278.641 258.052 278.595 258.052 277.037C258.052 275.621 258.477 275.004 261.456 272.313C268.591 265.984 276.105 261.168 284.185 257.863L289.148 255.83L287.682 253.987C286.925 252.996 286.123 252.194 285.98 252.194C285.837 252.194 283.475 252.714 280.735 253.328C271.331 255.499 260.271 259.559 250.585 264.426C248.459 265.514 246.097 266.362 245.29 266.362C243.967 266.362 243.874 266.219 243.874 264.758C243.874 262.679 246.189 260.554 252.9 256.636C260.271 252.34 268.919 248.843 278.277 246.529C279.365 246.247 280.261 245.916 280.261 245.773C280.261 245.63 279.223 244.308 277.899 242.796L275.584 240.104L270.007 240.671C261.263 241.57 255.119 242.75 246.9 245.156C244.252 245.912 241.512 246.525 240.849 246.525C239.76 246.525 239.621 246.336 239.621 244.967C239.621 242.888 240.378 242.275 245.765 240.008C251.341 237.648 257.203 235.993 264.149 234.717C267.128 234.196 269.633 233.726 269.679 233.629C270.104 233.205 266.797 229.993 262.922 227.112C257.678 223.24 250.917 216.866 247.61 212.708C245.105 209.546 244.492 207.09 246.143 206.523C253.375 204.113 258.43 198.872 261.691 190.515C262.872 187.445 262.918 186.786 262.968 178.946C263.015 169.833 263.204 169.216 265.708 168.981C267.125 168.838 267.175 168.746 268.734 163.173L270.293 157.504L269.158 153.725C265.944 143.051 263.061 128.458 261.788 116.419C261.031 108.864 261.128 92.1465 262.023 84.6343C262.922 77.2686 264.196 70.5122 265.944 64.3729L267.171 59.9805H268.873C270.906 59.9805 281.017 65.4604 290.232 71.5496C303.179 80.1455 318.635 93.4152 330.258 105.929L333.662 109.566L338.293 108.197C349.352 104.938 358.471 103.712 371.939 103.712C385.739 103.712 393.534 104.749 405.162 108.197L409.889 109.612L413.906 105.316C419.012 99.8361 429.689 89.825 436.354 84.2988C446.372 75.9883 456.818 68.8578 467.828 62.811C472.081 60.4509 473.404 59.9303 474.821 60.073L476.615 60.2157L478.317 67.0646C481.435 79.3433 481.813 83.2614 481.813 101.066C481.767 113.534 481.624 118.115 480.964 122.789C479.737 131.431 477.136 143.807 475.01 151.361L473.119 157.971L473.968 161.041C474.489 162.741 475.102 165.244 475.434 166.613C475.955 168.881 476.094 169.07 477.325 169.07C479.972 169.07 480.161 169.779 480.161 178.56C480.161 185.409 480.304 187.013 481.153 189.516C483.658 197.024 488.146 202.504 494.1 205.242C497.454 206.8 497.643 206.943 497.643 208.455C497.643 209.681 497.029 210.722 494.664 213.507C490.835 217.992 483.889 224.509 480.393 226.919C477.699 228.762 473.539 232.681 473.539 233.39C473.539 233.579 474.01 233.861 474.628 233.957C475.195 234.05 478.031 234.57 480.864 235.137C487.054 236.271 493.294 238.299 499.341 241.087C503.782 243.166 503.782 243.166 503.782 244.867V246.614L501.56 246.425C500.282 246.282 496.597 245.434 493.336 244.489C486.482 242.553 477.834 240.995 471.502 240.571L467.153 240.289L464.884 243.027L462.661 245.815L464.884 246.429C475.944 249.406 485.487 253.605 493.71 259.085C499.005 262.579 499.051 262.625 499.051 264.469C499.051 266.262 498.959 266.358 497.635 266.358C496.832 266.358 494.282 265.413 491.916 264.233C482.936 259.698 470.884 255.306 460.866 252.9L457.416 252.051L455.761 253.655C454.862 254.504 454.202 255.402 454.294 255.638C454.341 255.873 456.139 256.771 458.215 257.62C465.964 260.736 474.188 265.93 481.23 272.166C484.113 274.715 484.395 275.143 484.395 276.794C484.395 278.541 484.348 278.637 482.836 278.637C481.844 278.637 480.285 277.978 478.251 276.605C470.217 271.221 453.866 263.003 448.193 261.538C447.912 261.445 446.681 262.294 445.453 263.427L443.231 265.46L453.438 280.712C462.086 293.746 463.599 296.249 463.599 297.714V299.461L457.362 302.439C453.912 304.043 449.66 305.979 447.912 306.735C446.117 307.444 444.697 308.2 444.697 308.389C444.697 308.532 447.155 310.279 450.131 312.214C455.518 315.708 455.564 315.708 455.564 317.598C455.564 319.299 454.997 320.243 449.563 327.328C430.662 351.839 413.694 369.455 392.288 386.928C388.695 389.809 387.468 390.564 386.237 390.564C384.771 390.564 384.678 390.472 384.678 388.818C384.678 387.73 386.333 382.586 388.931 375.69C391.246 369.459 396.587 355.005 400.793 343.578C404.953 332.148 410.576 316.85 413.269 309.577C415.963 302.304 418.988 293.897 420.026 290.923C421.065 287.946 422.577 283.793 423.334 281.668L424.75 277.889L420.922 279.871C411.517 284.734 400.697 288.467 389.401 290.734C386.14 291.394 383.35 291.961 383.165 292.011C382.93 292.057 386.094 296.168 390.158 301.077C401.924 315.435 404.525 319.025 404.525 320.961C404.525 322.472 404.432 322.565 402.823 322.565C401.029 322.565 400.222 321.998 391.763 314.582C389.54 312.6 387.275 310.614 386.708 310.144L385.67 309.245L383.069 313.306C381.602 315.527 380.421 317.698 380.421 318.076C380.421 318.689 384.909 340.79 389.166 361.144C389.826 364.306 390.347 367.519 390.347 368.275C390.347 369.312 388.599 372.1 383.401 379.277C379.572 384.568 375.698 389.998 374.799 391.367C373.383 393.445 372.862 393.823 371.584 393.869C370.403 393.869 369.79 393.491 368.702 392.076L368.729 392.068ZM380.873 283.072C397.081 280.712 412.629 274.619 427.042 264.985C430.917 262.386 434.698 259.745 435.455 259.081L436.825 257.948L433.471 256.956C431.58 256.39 428.605 255.541 426.76 255.021C423.5 254.029 423.453 254.029 423.453 252.421C423.453 251.288 423.689 250.767 424.352 250.532C425.344 250.25 438.106 251.477 441.035 252.136C442.594 252.514 442.88 252.417 444.06 251.191C444.77 250.435 445.195 249.822 445.006 249.822C444.817 249.822 440.989 249.398 436.547 248.877C432.059 248.357 427.567 247.886 426.529 247.84C424.734 247.697 424.638 247.605 424.495 245.95C424.352 244.296 424.403 244.25 426.386 243.918C427.521 243.729 433.618 243.54 439.951 243.494L451.435 243.448L452.805 241.793L454.221 240.139L451.242 239.996C449.586 239.904 445.191 240.089 441.413 240.374C437.631 240.656 432.811 241.033 430.685 241.176L426.764 241.458V239.757C426.764 237.632 427.096 237.443 432.908 236.217C440.518 234.562 447.51 233.668 454.41 233.336L461.025 233.055L460.882 230.883L460.693 228.662L464.521 226.395C469.626 223.371 474.446 219.688 479.691 214.918L483.99 211L481.25 208.497C478.271 205.805 475.295 201.224 473.501 196.596C472.887 194.942 472.274 193.619 472.131 193.619C471.988 193.619 471.328 196.546 470.618 200.183C468.256 212.319 465.702 218.08 460.365 223.371C452.377 231.304 440.329 234.659 421.848 234.092C411.641 233.81 406.396 232.677 399.446 229.229C391.176 225.168 385.836 218.886 379.549 205.805C376.099 198.579 374.965 197.21 371.989 196.643C369.296 196.076 366.649 198.625 364.379 203.916C358.236 218.13 350.676 226.68 340.704 230.598C334.372 233.101 330.308 233.81 320.668 234.092C306.915 234.47 298.128 232.866 289.48 228.423C282.345 224.74 277.903 219.122 274.831 210.005C273.886 207.124 271.289 194.846 271.289 193.002C271.289 192.671 270.578 194.136 269.729 196.215C267.507 201.741 265.855 204.336 262.262 207.88L259.098 211.093L262.262 214.07C267.414 218.886 273.179 223.182 281.117 227.953C282.063 228.566 282.206 228.944 282.063 230.833L281.92 233.055L289.009 233.336C296.997 233.668 301.2 234.235 309.095 235.982C315.949 237.493 316.184 237.586 316.184 239.761V241.462L311.835 241.13C309.423 240.987 304.982 240.609 302.006 240.374C299.027 240.139 294.774 239.904 292.602 239.904H288.681L290.24 241.697L291.799 243.444L303.376 243.49C309.755 243.536 315.806 243.679 316.798 243.914C318.453 244.246 318.546 244.385 318.546 245.993V247.693L309.944 248.542C305.171 249.062 300.586 249.533 299.783 249.676L298.224 249.911L299.262 251.187L300.301 252.414L303.654 251.8C305.448 251.469 309.798 251.091 313.248 250.902L319.534 250.62L319.248 254.207L313.672 255.765C305.923 257.986 306.112 257.797 309.134 260.204C324.257 272.201 345.335 281.078 364.615 283.484C368.254 283.955 376.288 283.766 380.873 283.06V283.072ZM394.387 170.674C416.171 168.549 427.139 168.028 448.166 168.217C460.5 168.31 465.983 168.217 465.983 167.839C465.983 167.604 465.37 165.479 464.567 163.166C463.811 160.852 463.151 158.441 463.151 157.828C463.151 157.169 463.765 154.666 464.567 152.256C470.803 132.704 474.064 108.336 472.648 91.5256C472.081 84.7731 470.425 74.6655 469.812 74.0061C469.622 73.8171 465.652 76.1772 460.974 79.2469C452.419 84.9158 445.805 89.9677 437.627 97.0518C432.761 101.302 416.457 117.691 415.18 119.673C413.999 121.467 411.776 121.278 404.262 118.728C400.72 117.548 397.741 116.65 397.648 116.793C397.555 116.885 397.127 118.871 396.749 121.185C394.858 132.804 390.084 146.024 384.558 154.809C382.243 158.492 382.054 158.681 380.398 158.681H378.696L378.365 153.154C377.705 142.198 376.381 131.146 374.205 118.678L373.213 112.871H371.654C370.187 112.871 370.095 113.013 369.62 115.138C367.636 124.394 365.556 141.161 365.036 151.974L364.704 158.681H363.145C361.775 158.681 361.3 158.349 359.884 156.459C356.623 152.021 352.748 143.71 350.009 135.257C348.639 131.15 346.416 121.135 346.416 119.106C346.416 116.65 345.991 116.507 341.831 117.83C339.705 118.489 336.822 119.531 335.356 120.19C330.818 122.222 330.725 122.172 324.535 115.277C315.177 104.888 302.89 93.7893 291.124 85.0508C285.312 80.7046 274.109 73.5279 273.731 73.8596C272.786 74.8507 270.849 88.5485 270.517 97.048C269.857 111.737 272.878 132.658 278.077 149.799C279.921 155.846 280.157 158.866 279.068 161.982C278.69 163.069 278.077 164.959 277.698 166.185L277.085 168.356H300.289C324.72 168.402 328.124 168.591 353.03 171.191C370.893 173.08 370.562 173.08 394.379 170.67L394.387 170.674Z" fill="#123648"/>
<path d="M357.29 256.247C357.29 254.781 357.858 254.122 362.724 249.541C366.409 246.093 368.157 244.157 368.111 243.494C368.111 242.881 366.787 241.415 364.707 239.622C360.409 236.032 359.178 234.239 359.178 231.639C359.178 227.86 359.131 227.86 371.183 227.721C381.39 227.579 381.865 227.629 382.76 228.523C383.516 229.279 383.752 230.128 383.752 232.017V234.474L379.264 238.77C376.806 241.13 374.776 243.351 374.776 243.729C374.776 244.107 377.234 246.706 380.209 249.49C385.075 254.072 385.643 254.781 385.643 256.243C385.643 257.801 385.596 257.847 383.895 257.847C381.911 257.847 378.554 256.667 374.255 254.542L371.465 253.127L368.536 254.592C364.615 256.575 360.833 257.851 358.85 257.851C357.383 257.851 357.29 257.759 357.29 256.247Z" fill="#123648"/>
<path d="M281.252 147.721C278.416 138.512 276.243 127.602 274.966 116.646C274.21 110.271 274.306 91.2865 275.109 85.4788L275.723 80.9939L277.567 80.8512C279.412 80.7085 279.504 80.8049 287.539 88.8802C298.41 99.8361 305.259 108.478 311.357 119.056C315.277 125.763 315.231 126.283 310.836 128.925C302.612 133.741 292.64 142.761 288.245 149.325C286.308 152.252 285.976 152.487 284.417 152.537H282.715L281.249 147.721H281.252Z" fill="#123648"/>
<path d="M455.02 149.14C449.112 141.3 442.073 134.783 434.038 129.731C429.832 127.085 429.643 126.896 429.643 125.292C429.643 124.016 430.542 122.13 432.997 117.973C439.754 106.685 447.456 97.0055 457.239 87.4648C463.903 80.9938 464.282 80.7123 465.933 80.855L467.681 80.9977L468.295 85.4827C469.098 91.2441 469.194 110.183 468.438 116.65C467.211 127.56 464.895 138.751 461.773 149.283C460.828 152.495 460.781 152.541 459.172 152.541C457.756 152.541 457.328 152.21 455.012 149.14H455.02Z" fill="#123648"/>
<path d="M515.707 357.127C515.114 357.479 514.384 357.536 513.749 357.804L457.723 381.494L401.191 391.739C400.888 391.794 400.573 391.845 400.279 391.752C398.966 391.336 398.559 389.16 399.814 388.34C420.931 374.549 449.438 338.301 462.803 319.353C463.304 318.643 463.251 317.702 462.694 317.034L458.356 311.831C457.588 310.91 457.838 309.52 458.878 308.924L470.967 302C471.916 301.456 472.224 300.233 471.643 299.305L457.134 276.107C456.186 274.59 457.596 272.793 459.269 273.43C467.859 276.699 485.922 284.594 498.368 297.148C517.156 316.096 515.727 343.408 516.62 355.377C516.675 356.12 516.297 356.776 515.707 357.127Z" fill="#123648"/>
<path d="M227.692 357.127C228.284 357.479 229.015 357.536 229.649 357.804L285.675 381.494L342.207 391.739C342.511 391.794 342.826 391.845 343.119 391.752C344.432 391.336 344.839 389.16 343.584 388.34C322.467 374.549 293.96 338.301 280.596 319.353C280.094 318.643 280.147 317.702 280.704 317.034L285.043 311.831C285.811 310.91 285.561 309.52 284.52 308.924L272.432 302C271.482 301.456 271.175 300.233 271.755 299.305L286.264 276.107C287.213 274.59 285.802 272.793 284.13 273.43C275.539 276.699 257.477 284.594 245.03 297.148C226.242 316.096 227.671 343.408 226.779 355.377C226.723 356.12 227.101 356.776 227.692 357.127Z" fill="#123648"/>
</g>
<defs>
<clipPath id="clip0_62_8">
<rect x="194" width="356" height="356" rx="178" fill="white"/>
</clipPath>
</defs>
</svg>
