<svg width="1101" height="314" viewBox="0 0 1101 314" fill="none" xmlns="http://www.w3.org/2000/svg">
<path d="M418.744 140.061C416.804 137.61 414.148 135.822 410.777 134.699C407.509 133.473 404.394 132.86 401.432 132.86C399.695 132.86 397.908 133.064 396.069 133.473C394.231 133.881 392.494 134.545 390.86 135.465C389.226 136.282 387.898 137.405 386.876 138.835C385.855 140.265 385.344 142.002 385.344 144.045C385.344 147.313 386.57 149.816 389.021 151.552C391.473 153.288 394.537 154.769 398.214 155.995C401.993 157.221 406.028 158.446 410.318 159.672C414.608 160.898 418.591 162.634 422.268 164.881C426.048 167.129 429.163 170.142 431.614 173.921C434.066 177.7 435.291 182.756 435.291 189.089C435.291 195.115 434.168 200.376 431.921 204.87C429.674 209.364 426.609 213.092 422.728 216.054C418.949 219.016 414.506 221.212 409.399 222.642C404.394 224.072 399.082 224.787 393.464 224.787C386.417 224.787 379.88 223.715 373.853 221.57C367.827 219.425 362.209 215.952 357 211.151L374.007 192.46C376.458 195.728 379.522 198.282 383.199 200.12C386.979 201.857 390.86 202.725 394.843 202.725C396.784 202.725 398.725 202.521 400.665 202.112C402.708 201.601 404.496 200.886 406.028 199.967C407.662 199.048 408.939 197.873 409.858 196.443C410.88 195.013 411.39 193.328 411.39 191.387C411.39 188.119 410.114 185.565 407.56 183.726C405.109 181.786 401.993 180.152 398.214 178.824C394.435 177.496 390.349 176.168 385.957 174.84C381.565 173.512 377.479 171.725 373.7 169.478C369.921 167.231 366.755 164.269 364.201 160.591C361.75 156.914 360.524 152.063 360.524 146.036C360.524 140.214 361.647 135.107 363.895 130.715C366.244 126.323 369.308 122.646 373.087 119.684C376.969 116.722 381.412 114.526 386.417 113.096C391.422 111.564 396.58 110.798 401.891 110.798C408.02 110.798 413.944 111.666 419.664 113.402C425.384 115.139 430.542 118.05 435.138 122.135L418.744 140.061Z" fill="#B6DFEC"/>
<path d="M491.247 189.395C489.511 189.395 487.315 189.497 484.659 189.702C482.106 189.804 479.603 190.212 477.152 190.927C474.803 191.642 472.76 192.715 471.023 194.145C469.389 195.575 468.572 197.567 468.572 200.12C468.572 202.878 469.747 204.921 472.096 206.249C474.445 207.577 476.896 208.24 479.45 208.24C481.697 208.24 483.842 207.934 485.885 207.321C488.03 206.708 489.919 205.84 491.554 204.717C493.188 203.593 494.465 202.163 495.384 200.427C496.405 198.69 496.916 196.647 496.916 194.298V189.395H491.247ZM496.916 212.684H496.61C494.056 216.667 490.634 219.527 486.345 221.263C482.157 223 477.714 223.868 473.015 223.868C469.542 223.868 466.172 223.357 462.903 222.336C459.737 221.417 456.928 219.987 454.476 218.046C452.025 216.105 450.084 213.705 448.654 210.845C447.224 207.985 446.509 204.665 446.509 200.886C446.509 196.596 447.275 192.97 448.808 190.008C450.442 187.046 452.587 184.595 455.242 182.654C458 180.713 461.116 179.232 464.588 178.211C468.061 177.087 471.636 176.27 475.313 175.759C479.092 175.249 482.821 174.942 486.498 174.84C490.277 174.738 493.75 174.687 496.916 174.687C496.916 170.601 495.435 167.384 492.473 165.035C489.613 162.583 486.191 161.358 482.208 161.358C478.429 161.358 474.956 162.175 471.789 163.809C468.725 165.341 465.967 167.486 463.516 170.244L451.259 157.68C455.549 153.697 460.554 150.735 466.274 148.794C471.994 146.751 477.918 145.73 484.046 145.73C490.788 145.73 496.303 146.598 500.593 148.334C504.985 149.969 508.458 152.42 511.012 155.689C513.667 158.957 515.506 162.992 516.527 167.792C517.549 172.491 518.059 177.955 518.059 184.186V222.03H496.916V212.684Z" fill="#B6DFEC"/>
<path d="M524.664 147.568H549.485L568.33 198.128H568.636L586.102 147.568H609.237L579.821 222.03H555.46L524.664 147.568Z" fill="#B6DFEC"/>
<path d="M668.632 176.372C668.734 172.491 667.458 169.171 664.802 166.414C662.146 163.656 658.724 162.277 654.537 162.277C651.983 162.277 649.736 162.685 647.795 163.502C645.855 164.32 644.169 165.392 642.739 166.72C641.411 167.946 640.339 169.427 639.522 171.163C638.807 172.797 638.398 174.534 638.296 176.372H668.632ZM688.09 209.16C684.413 213.858 679.766 217.484 674.148 220.038C668.53 222.591 662.708 223.868 656.682 223.868C650.962 223.868 645.548 222.949 640.441 221.11C635.436 219.272 631.044 216.667 627.265 213.296C623.588 209.824 620.677 205.687 618.532 200.886C616.387 196.086 615.314 190.723 615.314 184.799C615.314 178.875 616.387 173.512 618.532 168.712C620.677 163.911 623.588 159.825 627.265 156.455C631.044 152.982 635.436 150.326 640.441 148.488C645.548 146.649 650.962 145.73 656.682 145.73C661.993 145.73 666.794 146.649 671.084 148.488C675.476 150.326 679.153 152.982 682.115 156.455C685.179 159.825 687.528 163.911 689.163 168.712C690.797 173.512 691.614 178.875 691.614 184.799V192H638.296C639.215 196.392 641.207 199.916 644.271 202.572C647.336 205.125 651.115 206.402 655.609 206.402C659.388 206.402 662.555 205.585 665.108 203.95C667.764 202.214 670.062 200.018 672.003 197.362L688.09 209.16Z" fill="#B6DFEC"/>
<path d="M748.489 234.133C746.957 238.117 745.476 241.641 744.046 244.705C742.616 247.769 740.778 250.323 738.53 252.366C736.385 254.51 733.628 256.094 730.257 257.115C726.886 258.239 722.443 258.8 716.927 258.8C711.003 258.8 705.283 257.881 699.768 256.043L702.832 237.198C706.305 238.73 709.88 239.496 713.557 239.496C716.11 239.496 718.204 239.189 719.839 238.576C721.473 238.066 722.801 237.249 723.822 236.125C724.946 235.104 725.865 233.827 726.58 232.295C727.295 230.763 728.061 228.975 728.878 226.932L730.563 222.642L697.929 147.568H722.75L741.901 196.75H742.207L758.601 147.568H782.196L748.489 234.133Z" fill="#B6DFEC"/>
<path d="M810.948 184.799C810.948 190.417 812.531 194.962 815.698 198.435C818.966 201.908 823.512 203.644 829.334 203.644C835.156 203.644 839.65 201.908 842.816 198.435C846.085 194.962 847.719 190.417 847.719 184.799C847.719 179.181 846.085 174.636 842.816 171.163C839.65 167.69 835.156 165.954 829.334 165.954C823.512 165.954 818.966 167.69 815.698 171.163C812.531 174.636 810.948 179.181 810.948 184.799ZM787.966 184.799C787.966 178.875 789.039 173.512 791.184 168.712C793.329 163.911 796.24 159.825 799.917 156.455C803.696 152.982 808.088 150.326 813.093 148.488C818.2 146.649 823.614 145.73 829.334 145.73C835.054 145.73 840.416 146.649 845.421 148.488C850.528 150.326 854.92 152.982 858.597 156.455C862.376 159.825 865.339 163.911 867.484 168.712C869.629 173.512 870.701 178.875 870.701 184.799C870.701 190.723 869.629 196.086 867.484 200.886C865.339 205.687 862.376 209.824 858.597 213.296C854.92 216.667 850.528 219.272 845.421 221.11C840.416 222.949 835.054 223.868 829.334 223.868C823.614 223.868 818.2 222.949 813.093 221.11C808.088 219.272 803.696 216.667 799.917 213.296C796.24 209.824 793.329 205.687 791.184 200.886C789.039 196.086 787.966 190.723 787.966 184.799Z" fill="#B6DFEC"/>
<path d="M882.705 124.127C882.705 120.45 883.982 117.335 886.536 114.781C889.191 112.125 892.358 110.798 896.035 110.798C899.712 110.798 902.827 112.125 905.381 114.781C908.036 117.335 909.364 120.45 909.364 124.127C909.364 127.804 908.036 130.97 905.381 133.626C902.827 136.18 899.712 137.456 896.035 137.456C892.358 137.456 889.191 136.18 886.536 133.626C883.982 130.97 882.705 127.804 882.705 124.127ZM907.526 227.545C907.526 232.346 907.066 236.636 906.147 240.415C905.228 244.296 903.695 247.565 901.55 250.221C899.406 252.978 896.546 255.072 892.971 256.502C889.498 258.034 885.157 258.8 879.948 258.8C878.211 258.8 876.424 258.698 874.585 258.494C872.747 258.392 870.959 258.085 869.223 257.575L870.448 237.198C872.287 238.117 874.279 238.576 876.424 238.576C878.364 238.576 879.897 238.066 881.02 237.044C882.144 236.023 882.961 234.746 883.471 233.214C883.982 231.682 884.289 230.048 884.391 228.311C884.493 226.575 884.544 224.992 884.544 223.562V147.568H907.526V227.545Z" fill="#B6DFEC"/>
<path d="M944.261 184.799C944.261 190.417 945.844 194.962 949.01 198.435C952.279 201.908 956.824 203.644 962.646 203.644C968.468 203.644 972.962 201.908 976.129 198.435C979.397 194.962 981.032 190.417 981.032 184.799C981.032 179.181 979.397 174.636 976.129 171.163C972.962 167.69 968.468 165.954 962.646 165.954C956.824 165.954 952.279 167.69 949.01 171.163C945.844 174.636 944.261 179.181 944.261 184.799ZM921.279 184.799C921.279 178.875 922.351 173.512 924.496 168.712C926.641 163.911 929.552 159.825 933.229 156.455C937.009 152.982 941.401 150.326 946.406 148.488C951.513 146.649 956.926 145.73 962.646 145.73C968.366 145.73 973.728 146.649 978.733 148.488C983.84 150.326 988.233 152.982 991.91 156.455C995.689 159.825 998.651 163.911 1000.8 168.712C1002.94 173.512 1004.01 178.875 1004.01 184.799C1004.01 190.723 1002.94 196.086 1000.8 200.886C998.651 205.687 995.689 209.824 991.91 213.296C988.233 216.667 983.84 219.272 978.733 221.11C973.728 222.949 968.366 223.868 962.646 223.868C956.926 223.868 951.513 222.949 946.406 221.11C941.401 219.272 937.009 216.667 933.229 213.296C929.552 209.824 926.641 205.687 924.496 200.886C922.351 196.086 921.279 190.723 921.279 184.799Z" fill="#B6DFEC"/>
<path d="M1040.84 184.799C1040.84 190.417 1042.42 194.962 1045.59 198.435C1048.86 201.908 1053.4 203.644 1059.22 203.644C1065.05 203.644 1069.54 201.908 1072.71 198.435C1075.97 194.962 1077.61 190.417 1077.61 184.799C1077.61 179.181 1075.97 174.636 1072.71 171.163C1069.54 167.69 1065.05 165.954 1059.22 165.954C1053.4 165.954 1048.86 167.69 1045.59 171.163C1042.42 174.636 1040.84 179.181 1040.84 184.799ZM1019.69 106.201H1042.68V155.535H1042.98C1045.64 151.961 1049.01 149.458 1053.1 148.028C1057.28 146.496 1061.78 145.73 1066.58 145.73C1071.89 145.73 1076.64 146.853 1080.83 149.101C1085.01 151.246 1088.54 154.157 1091.4 157.834C1094.36 161.511 1096.61 165.75 1098.14 170.55C1099.77 175.249 1100.59 180.203 1100.59 185.412C1100.59 191.03 1099.72 196.188 1097.99 200.886C1096.25 205.585 1093.75 209.67 1090.48 213.143C1087.31 216.514 1083.48 219.17 1078.99 221.11C1074.49 222.949 1069.49 223.868 1063.97 223.868C1061.32 223.868 1058.82 223.511 1056.47 222.796C1054.12 222.081 1051.92 221.161 1049.88 220.038C1047.94 218.914 1046.2 217.689 1044.67 216.361C1043.24 214.931 1042.06 213.552 1041.14 212.224H1040.84V222.03H1019.69V106.201Z" fill="#B6DFEC"/>
<g clip-path="url(#clip0_55_690)">
<rect width="314" height="314" rx="157" fill="#61D4FB"/>
<path d="M62.4621 102.126L70.8048 136.748L66.2163 159.69L59.9593 173.039L52.0337 185.97L59.9593 194.73L72.8904 205.992L87.073 223.512L94.1643 233.523L73.7247 244.369L58.7079 266.06L63.7135 289.002L82.4846 317.784L130.872 345.315L156.735 346.984L182.597 345.315L216.802 332.384L238.91 313.613L253.927 282.328L246.419 246.871L218.888 234.357L226.813 223.095L243.499 204.741L261.436 185.553L253.927 176.793L243.499 151.765V136.748L250.173 112.554V71.6746L243.499 60.8291L203.454 90.8628L186.768 102.126L172.169 98.3713H136.295L119.61 102.126L87.073 71.6746L70.8048 60.8291L62.4621 71.6746V102.126Z" fill="#61D4FB"/>
<path d="M154.114 345.813C153.406 344.939 150.03 340.232 146.568 335.317C140.608 326.901 140.275 326.32 140.275 324.487C140.275 322.82 145.401 296.411 148.155 284.04L148.948 280.418L146.572 276.629C145.278 274.588 144.111 272.88 143.988 272.839C143.862 272.839 140.779 275.465 137.109 278.669C131.149 283.918 130.316 284.459 128.94 284.499C127.399 284.499 127.358 284.459 127.358 283.085C127.358 281.377 129.941 277.795 140.03 265.632C143.614 261.343 146.531 257.758 146.531 257.676C146.531 257.594 145.156 257.261 143.529 257.009C133.318 255.343 124.271 252.387 114.686 247.594C112.184 246.346 110.101 245.387 110.016 245.468C109.849 245.635 121.187 276.959 132.984 308.867C134.485 312.99 137.154 320.197 138.818 324.905C140.527 329.612 142.569 335.194 143.362 337.317C144.196 339.442 144.863 341.817 144.863 342.606C144.863 344.021 144.781 344.065 143.362 344.065C141.735 344.065 141.068 343.606 134.652 338.276C117.854 324.238 104.056 309.701 87.9254 288.959C80.5904 279.544 80.6312 279.755 86.5912 275.88C93.2182 271.632 93.1774 272.258 87.0064 269.506C74.5419 263.924 75.2533 264.339 75.2941 262.55C75.2941 261.176 76.5876 259.05 84.3821 247.472L93.511 233.934L91.5504 232.352C90.5089 231.478 89.4231 230.771 89.1337 230.771C86.7579 230.771 70.7944 238.519 64.2082 242.893C60.6241 245.227 59.4974 245.768 58.1631 245.768C56.5362 245.768 56.4953 245.727 56.4953 244.353C56.4953 243.104 56.8697 242.56 59.4974 240.186C65.7909 234.604 72.418 230.356 79.5454 227.441L83.9226 225.648L82.6292 224.022C81.9621 223.148 81.2541 222.441 81.1282 222.441C81.0022 222.441 78.9191 222.9 76.5025 223.441C68.2076 225.356 58.4525 228.937 49.9091 233.23C48.0336 234.189 45.9505 234.938 45.2392 234.938C44.0717 234.938 43.99 234.812 43.99 233.523C43.99 231.689 46.0322 229.815 51.9513 226.359C58.4525 222.57 66.0802 219.485 74.3343 217.444C75.2942 217.196 76.0838 216.903 76.0838 216.777C76.0838 216.652 75.1682 215.485 74.0007 214.152L71.9585 211.777L67.0401 212.277C59.3272 213.07 53.9085 214.111 46.6585 216.233C44.3236 216.9 41.9069 217.441 41.3215 217.441C40.3616 217.441 40.2391 217.274 40.2391 216.067C40.2391 214.233 40.9062 213.692 45.6578 211.692C50.5762 209.611 55.7465 208.151 61.8732 207.026C64.5009 206.566 66.7099 206.151 66.7508 206.066C67.1252 205.692 64.2082 202.859 60.7908 200.318C56.1652 196.903 50.2018 191.28 47.2848 187.614C45.0758 184.825 44.5346 182.658 45.9914 182.158C52.37 180.032 56.8289 175.409 59.705 168.039C60.7466 165.331 60.7874 164.749 60.8317 157.834C60.8725 149.797 61.0393 149.253 63.2483 149.045C64.4975 148.919 64.5418 148.838 65.9169 143.923L67.292 138.923L66.2913 135.589C63.456 126.174 60.9134 113.303 59.7901 102.684C59.123 96.0206 59.2081 81.2755 59.9978 74.6495C60.7908 68.1528 61.9141 62.1935 63.456 56.7785L64.5384 52.9043H66.0394C67.8332 52.9043 76.7509 57.7377 84.8791 63.1085C96.2986 70.6903 109.931 82.3945 120.183 93.4321L123.185 96.6396L127.269 95.4321C137.024 92.5579 145.067 91.4763 156.946 91.4763C169.118 91.4763 175.994 92.3913 186.249 95.4321L190.419 96.6804L193.962 92.8913C198.465 88.0579 207.883 79.2278 213.762 74.3536C222.598 67.0235 231.812 60.7343 241.522 55.4009C245.273 53.3193 246.441 52.8601 247.69 52.9859L249.273 53.1118L250.774 59.1527C253.524 69.9828 253.858 73.4386 253.858 89.1429C253.817 100.14 253.691 104.181 253.109 108.303C252.026 115.926 249.732 126.841 247.857 133.504L246.189 139.334L246.938 142.042C247.397 143.542 247.938 145.749 248.231 146.957C248.691 148.957 248.813 149.123 249.899 149.123C252.234 149.123 252.401 149.749 252.401 157.494C252.401 163.535 252.527 164.95 253.276 167.158C255.485 173.78 259.443 178.614 264.695 181.029C267.653 182.403 267.82 182.529 267.82 183.862C267.82 184.944 267.278 185.862 265.192 188.318C261.815 192.274 255.689 198.022 252.605 200.148C250.229 201.774 246.56 205.23 246.56 205.855C246.56 206.022 246.975 206.27 247.52 206.356C248.02 206.437 250.522 206.896 253.02 207.396C258.48 208.396 263.984 210.185 269.317 212.645C273.235 214.478 273.235 214.478 273.235 215.978V217.519L271.274 217.352C270.148 217.226 266.897 216.478 264.021 215.645C257.976 213.937 250.348 212.563 244.763 212.189L240.927 211.941L238.925 214.356L236.965 216.815L238.925 217.356C248.68 219.982 257.098 223.686 264.351 228.519C269.021 231.601 269.062 231.642 269.062 233.267C269.062 234.849 268.98 234.934 267.813 234.934C267.105 234.934 264.855 234.101 262.769 233.06C254.848 229.06 244.218 225.186 235.382 223.063L232.339 222.315L230.879 223.73C230.086 224.478 229.504 225.271 229.586 225.478C229.626 225.686 231.212 226.478 233.044 227.227C239.878 229.975 247.132 234.557 253.344 240.057C255.886 242.305 256.135 242.683 256.135 244.138C256.135 245.679 256.094 245.764 254.76 245.764C253.885 245.764 252.51 245.183 250.716 243.972C243.629 239.223 229.208 231.975 224.204 230.682C223.956 230.601 222.87 231.349 221.788 232.349L219.827 234.142L228.83 247.594C236.458 259.091 237.792 261.298 237.792 262.591V264.132L232.291 266.758C229.249 268.173 225.498 269.88 223.956 270.547C222.373 271.173 221.12 271.839 221.12 272.006C221.12 272.132 223.289 273.673 225.913 275.38C230.664 278.462 230.705 278.462 230.705 280.129C230.705 281.629 230.205 282.462 225.413 288.71C208.741 310.33 193.775 325.867 174.894 341.279C171.725 343.82 170.643 344.487 169.557 344.487C168.264 344.487 168.182 344.405 168.182 342.946C168.182 341.987 169.642 337.449 171.933 331.368C173.975 325.871 178.686 313.122 182.396 303.044C186.065 292.962 191.025 279.469 193.4 273.054C195.776 266.639 198.445 259.224 199.36 256.601C200.276 253.975 201.61 250.312 202.277 248.438L203.526 245.104L200.15 246.853C191.855 251.142 182.311 254.434 172.348 256.434C169.472 257.016 167.011 257.516 166.848 257.56C166.64 257.601 169.431 261.227 173.015 265.557C183.393 278.221 185.688 281.387 185.688 283.095C185.688 284.428 185.606 284.51 184.186 284.51C182.604 284.51 181.892 284.01 174.431 277.469C172.471 275.72 170.473 273.969 169.972 273.554L169.057 272.761L166.763 276.343C165.469 278.302 164.428 280.217 164.428 280.55C164.428 281.091 168.386 300.585 172.141 318.537C172.723 321.327 173.182 324.16 173.182 324.827C173.182 325.742 171.64 328.201 167.055 334.531C163.679 339.198 160.262 343.987 159.469 345.194C158.219 347.028 157.76 347.361 156.633 347.402C155.592 347.402 155.051 347.068 154.091 345.82L154.114 345.813ZM164.826 249.676C179.122 247.594 192.835 242.22 205.548 233.723C208.966 231.431 212.301 229.101 212.968 228.516L214.177 227.516L211.219 226.642C209.551 226.141 206.927 225.393 205.3 224.934C202.424 224.06 202.383 224.06 202.383 222.641C202.383 221.641 202.59 221.182 203.176 220.975C204.051 220.726 215.307 221.808 217.89 222.39C219.265 222.723 219.517 222.638 220.559 221.556C221.185 220.89 221.559 220.349 221.393 220.349C221.226 220.349 217.849 219.975 213.932 219.516C209.973 219.056 206.011 218.641 205.096 218.601C203.513 218.475 203.428 218.393 203.302 216.934C203.176 215.475 203.22 215.434 204.97 215.141C205.97 214.975 211.348 214.808 216.934 214.767L227.063 214.726L228.272 213.267L229.521 211.808L226.893 211.682C225.433 211.6 221.556 211.764 218.224 212.015C214.888 212.264 210.637 212.597 208.761 212.723L205.303 212.971V211.471C205.303 209.597 205.596 209.43 210.722 208.349C217.434 206.89 223.602 206.1 229.688 205.808L235.522 205.56L235.396 203.645L235.229 201.685L238.605 199.685C243.109 197.019 247.36 193.77 251.985 189.563L255.777 186.107L253.361 183.899C250.733 181.525 248.109 177.484 246.526 173.403C245.985 171.943 245.444 170.777 245.318 170.777C245.192 170.777 244.61 173.358 243.983 176.566C241.9 187.27 239.647 192.352 234.94 197.019C227.894 204.015 217.267 206.975 200.967 206.475C191.964 206.226 187.338 205.226 181.208 202.185C173.914 198.604 169.203 193.063 163.659 181.525C160.616 175.151 159.615 173.943 156.991 173.443C154.615 172.943 152.28 175.192 150.278 179.859C144.86 192.396 138.192 199.937 129.397 203.393C123.811 205.6 120.227 206.226 111.724 206.475C99.5934 206.808 91.8431 205.393 84.2154 201.474C77.9218 198.226 74.0041 193.27 71.2948 185.229C70.4608 182.688 68.1701 171.858 68.1701 170.233C68.1701 169.94 67.5438 171.233 66.795 173.066C64.8345 177.94 63.3777 180.229 60.2088 183.355L57.4177 186.189L60.2088 188.814C64.7528 193.063 69.838 196.852 76.8394 201.06C77.6734 201.6 77.7993 201.934 77.6734 203.6L77.5474 205.56L83.8001 205.808C90.8458 206.1 94.5525 206.6 101.517 208.141C107.562 209.475 107.769 209.556 107.769 211.475V212.975L103.933 212.682C101.806 212.556 97.8882 212.223 95.2639 212.015C92.6362 211.808 88.8853 211.6 86.969 211.6H83.5108L84.8859 213.182L86.261 214.723L96.4722 214.764C102.099 214.805 107.436 214.93 108.31 215.138C109.771 215.43 109.852 215.553 109.852 216.971V218.471L102.265 219.22C98.0549 219.679 94.0113 220.094 93.3033 220.22L91.9282 220.427L92.8438 221.553L93.7594 222.635L96.7173 222.094C98.3 221.801 102.136 221.468 105.179 221.301L110.724 221.053L110.472 224.216L105.553 225.59C98.7187 227.55 98.8854 227.383 101.551 229.506C114.89 240.087 133.481 247.917 150.486 250.04C153.696 250.455 160.782 250.288 164.826 249.666V249.676ZM176.746 150.538C195.96 148.664 205.633 148.205 224.18 148.372C235.059 148.453 239.895 148.372 239.895 148.038C239.895 147.831 239.354 145.957 238.646 143.916C237.979 141.875 237.397 139.749 237.397 139.208C237.397 138.627 237.938 136.419 238.646 134.293C244.147 117.048 247.023 95.5546 245.774 80.7278C245.273 74.772 243.813 65.8569 243.272 65.2752C243.105 65.1086 239.603 67.1902 235.477 69.8977C227.931 74.8978 222.097 79.3537 214.885 85.6021C210.593 89.3504 196.212 103.806 195.085 105.555C194.044 107.136 192.083 106.97 185.456 104.721C182.331 103.681 179.704 102.888 179.622 103.014C179.54 103.096 179.163 104.847 178.829 106.888C177.161 117.137 172.951 128.797 168.077 136.545C166.034 139.793 165.868 139.96 164.407 139.96H162.906L162.614 135.086C162.032 125.422 160.864 115.674 158.944 104.677L158.07 99.5546H156.694C155.401 99.5546 155.319 99.6805 154.901 101.555C153.151 109.718 151.317 124.507 150.857 134.045L150.564 139.96H149.189C147.981 139.96 147.562 139.667 146.313 138.001C143.437 134.086 140.02 126.756 137.603 119.3C136.395 115.677 134.434 106.844 134.434 105.055C134.434 102.888 134.06 102.762 130.39 103.929C128.515 104.51 125.972 105.429 124.679 106.011C120.676 107.803 120.594 107.759 115.135 101.677C106.881 92.5137 96.0433 82.7245 85.6653 75.0169C80.5393 71.1835 70.6583 64.8534 70.3247 65.146C69.4908 66.0201 67.7821 78.1019 67.4894 85.5987C66.9073 98.5546 69.5725 117.007 74.1573 132.127C75.7843 137.46 75.9919 140.123 75.0321 142.872C74.6985 143.831 74.1573 145.497 73.8237 146.579L73.2826 148.494H93.7492C115.298 148.535 118.3 148.702 140.268 150.994C156.024 152.661 155.731 152.661 176.739 150.535L176.746 150.538Z" fill="#123648"/>
<path d="M144.026 226.016C144.026 224.723 144.526 224.141 148.818 220.101C152.069 217.06 153.611 215.352 153.57 214.767C153.57 214.226 152.402 212.934 150.568 211.352C146.776 208.185 145.69 206.604 145.69 204.311C145.69 200.978 145.649 200.978 156.279 200.855C165.282 200.73 165.701 200.774 166.49 201.563C167.158 202.23 167.365 202.978 167.365 204.645V206.811L163.407 210.6C161.238 212.682 159.448 214.641 159.448 214.975C159.448 215.308 161.616 217.601 164.241 220.056C168.533 224.097 169.033 224.723 169.033 226.012C169.033 227.386 168.992 227.427 167.491 227.427C165.742 227.427 162.78 226.386 158.989 224.512L156.528 223.264L153.944 224.556C150.486 226.305 147.15 227.431 145.401 227.431C144.107 227.431 144.026 227.349 144.026 226.016Z" fill="#123648"/>
<path d="M76.9586 130.293C74.4568 122.171 72.5405 112.548 71.4139 102.885C70.7468 97.2621 70.8319 80.517 71.5398 75.3944L72.081 71.4386L73.708 71.3127C75.335 71.1869 75.4167 71.2719 82.5033 78.3945C92.0916 88.0579 98.1332 95.6804 103.511 105.011C106.969 110.926 106.928 111.385 103.052 113.715C95.7983 117.963 87.003 125.919 83.1262 131.708C81.4175 134.29 81.1248 134.497 79.7497 134.542H78.2486L76.9552 130.293H76.9586Z" fill="#123648"/>
<path d="M230.225 131.545C225.014 124.63 218.806 118.881 211.719 114.426C208.009 112.092 207.842 111.926 207.842 110.511C207.842 109.385 208.635 107.721 210.8 104.055C216.76 94.0988 223.554 85.5612 232.183 77.1461C238.061 71.4386 238.394 71.1903 239.851 71.3161L241.393 71.442L241.934 75.3978C242.642 80.4795 242.727 97.1838 242.06 102.888C240.978 112.511 238.936 122.381 236.182 131.671C235.348 134.504 235.307 134.545 233.888 134.545C232.639 134.545 232.261 134.252 230.219 131.545H230.225Z" fill="#123648"/>
<path d="M283.752 314.994C283.23 315.304 282.586 315.355 282.026 315.591L232.61 336.487L182.747 345.523C182.48 345.571 182.202 345.617 181.943 345.534C180.785 345.167 180.425 343.248 181.532 342.525C200.158 330.36 225.302 298.39 237.09 281.677C237.532 281.05 237.485 280.22 236.994 279.631L233.168 275.042C232.49 274.23 232.711 273.004 233.629 272.478L244.291 266.371C245.128 265.891 245.399 264.812 244.888 263.994L232.09 243.532C231.254 242.194 232.497 240.61 233.973 241.171C241.55 244.055 257.481 251.019 268.46 262.091C285.031 278.804 283.771 302.893 284.558 313.451C284.606 314.106 284.273 314.684 283.752 314.994Z" fill="#123648"/>
<path d="M29.7168 314.994C30.2393 315.304 30.8836 315.355 31.4435 315.591L80.8596 336.487L130.722 345.523C130.99 345.571 131.267 345.617 131.526 345.534C132.684 345.167 133.044 343.248 131.937 342.525C113.311 330.36 88.1673 298.39 76.3792 281.677C75.9371 281.05 75.9838 280.22 76.475 279.631L80.3016 275.042C80.9789 274.23 80.7584 273.004 79.8405 272.478L69.1783 266.371C68.3408 265.891 68.0698 264.812 68.5814 263.994L81.3788 243.532C82.2156 242.194 80.9718 240.61 79.4962 241.171C71.9191 244.055 55.9878 251.019 45.0095 262.091C28.4385 278.804 29.6983 302.893 28.9115 313.451C28.8626 314.106 29.196 314.684 29.7168 314.994Z" fill="#123648"/>
</g>
<defs>
<clipPath id="clip0_55_690">
<rect width="314" height="314" rx="157" fill="white"/>
</clipPath>
</defs>
</svg>
